<svg xmlns="http://www.w3.org/2000/svg" viewBox="160 290 700 700">
  <path
    fill="#4270c0"
    fill-rule="nonzero"
    transform="matrix(0.13333333,0,0,-0.13333333,0,2631.8267)"
    d="m 4315.88,14569.9 c -42.99,24.9 -58.89,61.3 -43.77,108.1 10.16,31.4 63.65,68.9 106.6,44.3 l 767.41,-439.3 105.11,60.3 0.35,1171.6 -95.99,45.4 -1179.13,-671.3 c 16.56,-108.7 -40.29,-197 -137.92,-237.4 l 0.01,-1215.6 c 43.77,-21.1 75.94,-40.3 118,-76.5 l 1112.32,638.2 c -8.67,50.5 -9.75,90.9 -7.3,139.8 z m -1857.22,-439.7 c 9.59,-47.9 7.01,-82.2 -3.24,-131.5 l 1100.59,-637.4 c 40.76,32.9 75.1,54.7 122.37,76 l 0.17,1208.2 c -103.07,43.1 -163.44,134.2 -150.51,244.8 l -1171.46,674.4 -88.67,-44.5 0.3,-1178 c 51.54,-17.9 83.6,-38.6 121.35,-69.3 l 763.56,435.6 c 32.28,18.4 72.68,25.6 102.3,1.3 22.54,-18.4 30.01,-57 23.24,-89.1 -4.51,-21.5 -30.76,-42.8 -58.98,-58.8 z m 2611.41,1735.8 -1119.85,649.6 c -36.44,-28.4 -67.74,-46.7 -111.4,-65.9 l -0.63,-944.8 c -0.03,-44 -41.05,-69.8 -75.31,-71.7 -31.33,-1.7 -83.81,18.8 -83.86,61 l -1.1,950.7 c -48.59,21.3 -80.75,41.4 -114.82,65.9 L 2441.27,15867 c 15.75,-54.2 21.36,-104.4 9.61,-162.2 l 178.92,-101.2 975.27,-568 c 91.75,76.4 206.42,78.5 297.87,2.8 l 1161.2,662.2 c -5.99,54.7 -1.49,105.4 5.93,165.4 z m -1041.9,-2658.4 c 27.82,-170.3 -94.8,-319.4 -264.79,-325.4 -171.35,-6.1 -306.04,144.3 -279.94,327.2 l -1119.73,647.1 c -140.7,-99.9 -335.35,-65.3 -418.94,86.6 -82.23,149.5 -10.38,339 155.81,396.3 l 0.03,1186.6 c -148.13,59.5 -216.63,223.4 -147.18,367.2 65.18,134.9 237.97,192 379.13,102.6 l 1153.71,664.1 c -26.34,162.1 72.37,305.3 236.69,330.5 85.78,13.2 171.34,-20.5 229.04,-79.1 60.87,-61.8 88.05,-147.6 74.44,-242.8 l 1157.08,-674.3 c 143.73,91.1 316.78,33.7 383.02,-106 66.45,-140.1 0.13,-304.3 -148.84,-362.9 l -0.23,-1184.4 c 89.72,-27.5 156.59,-89.1 183.44,-164.1 34.82,-97.4 18.63,-195.2 -43.41,-272.8 -96.28,-120.3 -271.43,-138.2 -396.9,-46.7 l -1132.43,-649.7"
  />
</svg>
