<?xml version="1.0" encoding="UTF-8" standalone="no"?>
<!-- Created with Inkscape (http://www.inkscape.org/) -->

<svg
   version="1.1"
   id="svg1"
   width="2368.52"
   height="2631.8267"
   viewBox="0 0 2368.52 2631.8267"
   sodipodi:docname="TalkFile_arte logo.eps"
   xmlns:inkscape="http://www.inkscape.org/namespaces/inkscape"
   xmlns:sodipodi="http://sodipodi.sourceforge.net/DTD/sodipodi-0.dtd"
   xmlns="http://www.w3.org/2000/svg"
   xmlns:svg="http://www.w3.org/2000/svg">
  <defs
     id="defs1" />
  <sodipodi:namedview
     id="namedview1"
     pagecolor="#ffffff"
     bordercolor="#000000"
     borderopacity="0.25"
     inkscape:showpageshadow="2"
     inkscape:pageopacity="0.0"
     inkscape:pagecheckerboard="0"
     inkscape:deskcolor="#d1d1d1">
    <inkscape:page
       x="0"
       y="0"
       inkscape:label="1"
       id="page1"
       width="2368.52"
       height="2631.8267"
       margin="0"
       bleed="0" />
  </sodipodi:namedview>
  <g
     id="g1"
     inkscape:groupmode="layer"
     inkscape:label="1">
    <g
       id="group-R5">
      <path
         id="path2"
         d="M 17763.9,0 H 0 V 8886.6 H 17763.9 V 0"
         style="fill:#0e0f0e;fill-opacity:1;fill-rule:nonzero;stroke:none"
         transform="matrix(0.13333333,0,0,-0.13333333,0,2631.8267)" />
      <path
         id="path3"
         d="m 9507.19,5797.2 c -34.4,20 -47.12,49.1 -35.02,86.5 8.12,25.2 50.92,55.1 85.28,35.4 l 613.95,-351.4 84.1,48.2 0.2,937.4 -76.8,36.2 -943.26,-537 c 13.25,-87 -32.23,-157.5 -110.33,-189.9 l 0.01,-972.5 c 35.02,-16.9 60.75,-32.2 94.4,-61.1 l 889.88,510.5 c -7,40.4 -7.8,72.7 -5.9,111.8 z M 8021.41,5445.5 c 7.67,-38.3 5.61,-65.8 -2.59,-105.2 l 880.47,-510 c 32.6,26.4 60.08,43.8 97.89,60.8 l 0.14,966.6 c -82.46,34.5 -130.75,107.4 -120.41,195.8 l -937.17,539.6 -70.94,-35.6 0.25,-942.4 c 41.23,-14.3 66.87,-30.9 97.08,-55.4 l 610.85,348.4 c 25.82,14.7 58.14,20.5 81.84,1.1 18.03,-14.8 24.01,-45.6 18.59,-71.4 -3.61,-17.1 -24.61,-34.1 -47.18,-46.9 z m 2089.09,1388.7 -895.85,519.6 c -29.14,-22.7 -54.19,-37.4 -89.12,-52.7 l -0.5,-755.9 c -0.03,-35.1 -32.84,-55.8 -60.25,-57.3 -25.06,-1.4 -67.05,15 -67.08,48.8 l -0.88,760.5 c -38.87,17.1 -64.6,33.1 -91.86,52.8 L 8007.5,6834.9 c 12.6,-43.3 17.08,-83.5 7.68,-129.8 l 143.14,-80.9 780.21,-454.4 c 73.4,61.1 165.14,62.8 238.3,2.3 l 928.97,529.7 c -4.8,43.8 -1.2,84.3 4.7,132.4 z M 9277.01,4707.4 c 22.26,-136.2 -75.84,-255.5 -211.83,-260.4 -137.07,-4.8 -244.83,115.5 -223.95,261.9 l -895.78,517.7 c -112.56,-80 -268.29,-52.3 -335.16,69.2 -65.78,119.6 -8.3,271.2 124.65,317 l 0.02,949.3 c -118.5,47.6 -173.3,178.7 -117.74,293.8 52.15,107.9 190.38,153.6 303.3,82 l 922.98,531.3 c -21.08,129.7 57.89,244.2 189.35,264.5 68.62,10.5 137.07,-16.4 183.23,-63.3 48.7,-49.5 70.44,-118.1 59.55,-194.3 l 925.67,-539.4 c 115,72.9 253.4,27 306.4,-84.8 53.2,-112.1 0.1,-243.5 -119.1,-290.3 l -0.1,-947.6 c 71.7,-21.9 125.2,-71.2 146.7,-131.3 27.9,-77.9 14.9,-156.1 -34.7,-218.2 -77,-96.2 -217.2,-110.6 -317.5,-37.4 l -905.99,-519.7"
         style="fill:#4270c0;fill-opacity:1;fill-rule:nonzero;stroke:none"
         transform="matrix(0.13333333,0,0,-0.13333333,0,2631.8267)" />
      <path
         id="path4"
         d="m 13554,2268.6 -1186.3,-0.3 c -8.1,-62.6 -9.5,-118.1 -5.3,-183.3 14.1,-221.9 191.1,-413.2 421.8,-414.3 l 906.9,-4.5 c 31.7,-0.2 60,-28.9 60.7,-58.6 l 3,-132.5 c 1,-46.5 -35.5,-85.8 -86.5,-85.7 l -884,1.1 c -379.2,0.5 -687.8,295.7 -708.1,679.6 l -0.2,653.1 c 15,374.6 292,654.6 660.2,702.5 l 963.7,1.2 c 36,-12.3 68.8,-43.8 68.4,-82.1 l -1.2,-113 c -0.7,-60.3 -53.2,-83.4 -105.9,-83.9 l -904.3,-7.6 c -216.4,-13.6 -370.7,-193.3 -391.9,-394.1 l -0.4,-199.4 1206.2,-0.6 c 33,0 64.5,-33.5 64.9,-64.5 l 1.7,-132.5 c 0.5,-39.7 -32.8,-80.5 -83.4,-80.6"
         style="fill:#ffffff;fill-opacity:1;fill-rule:nonzero;stroke:none"
         transform="matrix(0.13333333,0,0,-0.13333333,0,2631.8267)" />
      <path
         id="path5"
         d="m 7613,1470.7 c -0.03,-42.9 -38.66,-79.8 -75.12,-79.3 l -128.77,1.7 c -42.93,0.5 -71.81,39.6 -71.67,84.1 l 3.03,918.6 c 0.15,46.6 50.34,78 92.54,78.3 l 1067.56,5.6 c 215.66,1.1 340.56,235.8 283.01,426.3 -46.95,155.4 -173.87,242.7 -332.94,242.6 l -1036.73,-0.7 c -28.31,0 -70.8,33.9 -71.31,57.6 l -3.06,141.7 c -0.95,43.8 38,79.7 82.47,79.6 l 1098.43,-4 c 177.84,-0.6 332.55,-106.6 439.96,-235.7 94.92,-135.7 130.74,-287.6 113.24,-451.1 -27.62,-258 -201.81,-460.3 -465.92,-527.2 l 490.32,-735.6 c 9.24,-13.9 10.68,-41 5.02,-52.3 -5.67,-11.3 -31.47,-30.7 -46.4,-30.8 l -166.51,-1.3 c -24.46,-0.2 -80.57,9 -95.26,30.7 l -527,775.4 -596.79,1.4 c -31.95,0.1 -53.67,-19.3 -57.67,-51.9 L 7613,1470.7"
         style="fill:#ffffff;fill-opacity:1;fill-rule:nonzero;stroke:none"
         transform="matrix(0.13333333,0,0,-0.13333333,0,2631.8267)" />
      <path
         id="path6"
         d="m 5484.59,2991.1 c -5.42,10.9 -30.32,22.2 -37.51,18.5 -8.98,-4.7 -22.86,-18 -28.69,-29.9 l -306.32,-624 -438.24,-901.2 c -17.68,-36.4 -46.99,-63.4 -89.74,-63.5 l -167.82,-0.2 c -14.13,0 -41.03,17.8 -47.25,29.7 -6.22,11.9 -6.78,42 1.37,58.7 l 906.65,1849.9 c 36.93,75.4 131.97,97.8 201.97,92.8 84.89,-6.1 139.13,-65.4 176.83,-142 l 273.83,-556.6 627.72,-1259.6 c 17.23,-34.5 -29.43,-73.5 -57.97,-73.6 l -168.11,-0.8 c -25.2,-0.1 -63.81,25.2 -77.06,51.8 l -769.66,1550"
         style="fill:#ffffff;fill-opacity:1;fill-rule:nonzero;stroke:none"
         transform="matrix(0.13333333,0,0,-0.13333333,0,2631.8267)" />
      <path
         id="path7"
         d="m 10718.3,1479.6 c 0,-96 -103.1,-98.3 -208.9,-85.8 -33.8,4 -68.2,35.1 -68.2,74.2 l -0.1,1626.9 c 0,28.8 -23.2,52.6 -49,52.6 l -648.75,0.5 c -26.96,0 -70.48,34.9 -70.59,59 l -0.68,150.7 c -0.16,34.1 43.05,68.8 80.9,68.8 h 1646.92 c 46.1,0 80.2,-37.2 80.6,-80 l 1.2,-111.5 c 0.5,-42 -35.1,-86.8 -82.7,-86.8 l -638.1,-0.9 c -19.5,0 -37.8,-20.2 -42.8,-42.1 l 0.2,-1625.6"
         style="fill:#ffffff;fill-opacity:1;fill-rule:nonzero;stroke:none"
         transform="matrix(0.13333333,0,0,-0.13333333,0,2631.8267)" />
      <path
         id="path8"
         d="m 5487.23,1645.5 c -111.64,-15.8 -200.09,56.8 -212.34,158.2 -11.6,96.1 62.74,187 165.75,194.8 100.1,7.5 180.62,-55.8 197.74,-149.9 16.72,-91.8 -46.34,-188.3 -151.15,-203.1"
         style="fill:#ffffff;fill-opacity:1;fill-rule:nonzero;stroke:none"
         transform="matrix(0.13333333,0,0,-0.13333333,0,2631.8267)" />
      <path
         id="path9"
         d="M 17763.9,10852.1 H 0 v 8886.6 h 17763.9 v -8886.6"
         style="fill:#0e0f0e;fill-opacity:1;fill-rule:nonzero;stroke:none"
         transform="matrix(0.13333333,0,0,-0.13333333,0,2631.8267)" />
      <path
         id="path10"
         d="m 4315.88,14569.9 c -42.99,24.9 -58.89,61.3 -43.77,108.1 10.16,31.4 63.65,68.9 106.6,44.3 l 767.41,-439.3 105.11,60.3 0.35,1171.6 -95.99,45.4 -1179.13,-671.3 c 16.56,-108.7 -40.29,-197 -137.92,-237.4 l 0.01,-1215.6 c 43.77,-21.1 75.94,-40.3 118,-76.5 l 1112.32,638.2 c -8.67,50.5 -9.75,90.9 -7.3,139.8 z m -1857.22,-439.7 c 9.59,-47.9 7.01,-82.2 -3.24,-131.5 l 1100.59,-637.4 c 40.76,32.9 75.1,54.7 122.37,76 l 0.17,1208.2 c -103.07,43.1 -163.44,134.2 -150.51,244.8 l -1171.46,674.4 -88.67,-44.5 0.3,-1178 c 51.54,-17.9 83.6,-38.6 121.35,-69.3 l 763.56,435.6 c 32.28,18.4 72.68,25.6 102.3,1.3 22.54,-18.4 30.01,-57 23.24,-89.1 -4.51,-21.5 -30.76,-42.8 -58.98,-58.8 z m 2611.41,1735.8 -1119.85,649.6 c -36.44,-28.4 -67.74,-46.7 -111.4,-65.9 l -0.63,-944.8 c -0.03,-44 -41.05,-69.8 -75.31,-71.7 -31.33,-1.7 -83.81,18.8 -83.86,61 l -1.1,950.7 c -48.59,21.3 -80.75,41.4 -114.82,65.9 L 2441.27,15867 c 15.75,-54.2 21.36,-104.4 9.61,-162.2 l 178.92,-101.2 975.27,-568 c 91.75,76.4 206.42,78.5 297.87,2.8 l 1161.2,662.2 c -5.99,54.7 -1.49,105.4 5.93,165.4 z m -1041.9,-2658.4 c 27.82,-170.3 -94.8,-319.4 -264.79,-325.4 -171.35,-6.1 -306.04,144.3 -279.94,327.2 l -1119.73,647.1 c -140.7,-99.9 -335.35,-65.3 -418.94,86.6 -82.23,149.5 -10.38,339 155.81,396.3 l 0.03,1186.6 c -148.13,59.5 -216.63,223.4 -147.18,367.2 65.18,134.9 237.97,192 379.13,102.6 l 1153.71,664.1 c -26.34,162.1 72.37,305.3 236.69,330.5 85.78,13.2 171.34,-20.5 229.04,-79.1 60.87,-61.8 88.05,-147.6 74.44,-242.8 l 1157.08,-674.3 c 143.73,91.1 316.78,33.7 383.02,-106 66.45,-140.1 0.13,-304.3 -148.84,-362.9 l -0.23,-1184.4 c 89.72,-27.5 156.59,-89.1 183.44,-164.1 34.82,-97.4 18.63,-195.2 -43.41,-272.8 -96.28,-120.3 -271.43,-138.2 -396.9,-46.7 l -1132.43,-649.7"
         style="fill:#4270c0;fill-opacity:1;fill-rule:nonzero;stroke:none"
         transform="matrix(0.13333333,0,0,-0.13333333,0,2631.8267)" />
      <path
         id="path11"
         d="m 15795.5,14798.6 -1186.2,-0.3 c -8.1,-62.7 -9.5,-118.2 -5.3,-183.3 14.1,-221.9 191,-413.2 421.7,-414.4 l 907,-4.5 c 31.6,-0.1 60,-28.8 60.7,-58.5 l 2.9,-132.5 c 1.1,-46.6 -35.5,-85.8 -86.4,-85.8 l -884.1,1.2 c -379.1,0.5 -687.7,295.6 -708,679.5 l -0.2,653.1 c 15,374.6 292,654.7 660.2,702.5 l 963.6,1.3 c 36.1,-12.4 68.9,-43.8 68.5,-82.1 l -1.2,-113 c -0.7,-60.3 -53.3,-83.5 -105.9,-83.9 l -904.3,-7.7 c -216.5,-13.6 -370.7,-193.2 -392,-394.1 l -0.3,-199.4 1206.2,-0.5 c 33,-0.1 64.5,-33.5 64.9,-64.6 l 1.6,-132.4 c 0.5,-39.7 -32.7,-80.6 -83.4,-80.6"
         style="fill:#ffffff;fill-opacity:1;fill-rule:nonzero;stroke:none"
         transform="matrix(0.13333333,0,0,-0.13333333,0,2631.8267)" />
      <path
         id="path12"
         d="m 9854.57,14000.6 c -0.03,-42.8 -38.65,-79.8 -75.11,-79.3 l -128.77,1.7 c -42.93,0.6 -71.82,39.7 -71.67,84.1 l 3.03,918.7 c 0.15,46.5 50.33,78 92.53,78.2 l 1067.52,5.6 c 215.7,1.2 340.6,235.9 283.1,426.3 -47,155.5 -173.9,242.7 -333,242.6 l -1036.71,-0.6 c -28.32,-0.1 -70.81,33.8 -71.32,57.6 l -3.06,141.6 c -0.94,43.8 38,79.8 82.47,79.6 l 1098.42,-3.9 c 177.9,-0.7 332.6,-106.7 440,-235.8 94.9,-135.7 130.7,-287.6 113.2,-451.1 -27.6,-258 -201.8,-460.2 -465.9,-527.2 l 490.3,-735.6 c 9.3,-13.8 10.7,-41 5,-52.3 -5.6,-11.3 -31.4,-30.7 -46.4,-30.8 l -166.5,-1.2 c -24.4,-0.2 -80.5,9 -95.2,30.6 l -527,775.5 -596.82,1.4 c -31.95,0 -53.67,-19.3 -57.68,-51.9 l -0.43,-673.8"
         style="fill:#ffffff;fill-opacity:1;fill-rule:nonzero;stroke:none"
         transform="matrix(0.13333333,0,0,-0.13333333,0,2631.8267)" />
      <path
         id="path13"
         d="m 7726.16,15521 c -5.41,10.9 -30.32,22.3 -37.51,18.5 -8.98,-4.6 -22.85,-18 -28.69,-29.9 l -306.31,-623.9 -438.24,-901.3 c -17.68,-36.3 -46.99,-63.4 -89.74,-63.4 l -167.83,-0.3 c -14.12,0 -41.03,17.8 -47.25,29.7 -6.21,12 -6.78,42.1 1.38,58.7 l 906.64,1850 c 36.93,75.3 131.97,97.8 201.97,92.8 84.89,-6.2 139.14,-65.5 176.84,-142.1 l 273.82,-556.5 627.73,-1259.6 c 17.22,-34.6 -29.43,-73.6 -57.97,-73.7 l -168.12,-0.8 c -25.2,-0.1 -63.8,25.2 -77.05,51.9 L 7726.16,15521"
         style="fill:#ffffff;fill-opacity:1;fill-rule:nonzero;stroke:none"
         transform="matrix(0.13333333,0,0,-0.13333333,0,2631.8267)" />
      <path
         id="path14"
         d="m 12959.9,14009.5 c 0,-96 -103.2,-98.2 -208.9,-85.7 -33.8,4 -68.3,35.1 -68.3,74.2 v 1626.8 c 0,28.8 -23.3,52.6 -49.1,52.7 l -648.7,0.4 c -26.9,0.1 -70.5,35 -70.6,59.1 l -0.6,150.7 c -0.2,34 43,68.7 80.9,68.7 h 1646.8 c 46.2,0 80.3,-37.1 80.7,-79.9 l 1.2,-111.5 c 0.5,-42 -35.1,-86.8 -82.7,-86.9 l -638.1,-0.8 c -19.5,-0.1 -37.9,-20.3 -42.8,-42.1 l 0.2,-1625.7"
         style="fill:#ffffff;fill-opacity:1;fill-rule:nonzero;stroke:none"
         transform="matrix(0.13333333,0,0,-0.13333333,0,2631.8267)" />
      <path
         id="path15"
         d="m 7728.8,14175.4 c -111.64,-15.7 -200.09,56.8 -212.33,158.2 -11.61,96.1 62.73,187 165.74,194.8 100.11,7.6 180.63,-55.8 197.75,-149.8 16.72,-91.9 -46.34,-188.4 -151.16,-203.2"
         style="fill:#ffffff;fill-opacity:1;fill-rule:nonzero;stroke:none"
         transform="matrix(0.13333333,0,0,-0.13333333,0,2631.8267)" />
    </g>
  </g>
</svg>
